<svg version="1.2" xmlns="http://www.w3.org/2000/svg" viewBox="0 0 250 250" width="250" height="250">
	<defs>
		<linearGradient id="g1" x2="1" gradientUnits="userSpaceOnUse" gradientTransform="matrix(-38.874,117.754,-83.554,-27.583,143.655,56.011)">
			<stop offset="0" stop-color="#ffffff" stop-opacity="0"/>
			<stop offset="1" stop-color="#ffffff" stop-opacity=".28"/>
		</linearGradient>
	</defs>
	<style>
		.s0 { fill: #0000bf } 
		.s1 { opacity: .16;fill: #ffffff } 
		.s2 { fill: url(#g1) } 
	</style>
	<path class="s0" d="m125.01 0c-11.12 27.29-17.86 45.16-30.28 71.63q3.61 3.93 7.43 7.65 3.82 3.71 7.84 7.22 4.02 3.51 8.22 6.79 4.2 3.28 8.58 6.33-4.83-1.84-9.5-4.04-4.67-2.2-9.15-4.76-4.49-2.56-8.76-5.46-4.27-2.9-8.31-6.13c-15.8 33.09-40.66 80.21-91.08 170.8 46.31-26.74 80.47-41.51 113.32-44.35v-7.44h-7.44v-7.48h7.44v7.48h14.96v-15h-14.96v-7.44h-7.44v-14.95h7.44v-7.45h14.96v7.45h7.45v7.47h-7.48v-7.47h-14.93v14.95h14.96v7.45h7.45v14.99h-7.48v6.99c35.54 0.89 71.49 15.82 121.75 44.83-7.71-14.19-14.61-26.97-21.18-39.15q-4.94-4.33-10.13-8.37-5.18-4.03-10.59-7.76-5.41-3.73-11.02-7.14-5.62-3.41-11.42-6.5 4.52 1.06 8.96 2.44 4.43 1.38 8.76 3.08 4.32 1.7 8.51 3.7 4.19 2 8.22 4.3c-66.79-124.37-72.19-140.9-95.1-194.66zm-49.01 153.4h14.92v7.45h7.47v44.83h-7.47v-22.44h-14.92v22.43h-7.48v-44.82h7.47zm0 7.44v14.96h14.92v-14.96zm67.21-7.44h7.47v7.44h7.47v7.48h7.45v-7.48h7.47v-7.44h7.48v52.28h-7.48v-37.36h-7.47v7.47h-7.45v-7.47h-7.47v37.36h-7.47z"/>
	<path class="s1" d="m195.39 148.61c-54.2-73.56-66.76-132.84-69.94-146.99q7.78 18.81 16.04 37.41 8.27 18.61 17.02 36.99 8.74 18.38 17.96 36.53 9.23 18.15 18.92 36.06z"/>
	<path class="s2" d="m125.47 1.07l-4.03 9.89c-1.42 3.49-2.78 6.83-4.11 10.1q-2.02 4.89-4.01 9.61c-1.32 3.16-2.67 6.25-4 9.41-1.32 3.15-2.67 6.3-4.15 9.51-1.47 3.22-2.94 6.51-4.52 9.93-1.58 3.41-3.23 6.94-5.01 10.65-0.25 0.51-0.54 1.1-0.79 1.61q3.6 3.9 7.41 7.6 3.8 3.7 7.81 7.19 4 3.49 8.19 6.75 4.18 3.27 8.54 6.3-4.81-1.83-9.47-4.03-4.66-2.2-9.13-4.75-4.47-2.55-8.73-5.44-4.27-2.89-8.29-6.11l-1.25 2.57c-0.58 1.18-1.29 2.52-1.89 3.75l-0.95 1.95c-7.84 16.01-17.91 35.58-31.47 60.92 31.71-17.86 65.91-43.64 128.03-21.43-3.11-5.9-5.98-11.43-8.67-16.64-2.68-5.2-5.19-10.07-7.51-14.68-2.32-4.6-4.46-8.93-6.47-13.06q-3-6.2-5.62-11.72c-1.75-3.69-3.39-7.31-4.94-10.72q-2.32-5.11-4.47-9.98c-1.44-3.25-2.68-6.5-3.99-9.66q-1.96-4.74-3.88-9.52c-0.32-0.81-0.65-1.66-0.97-2.47-3.64-8.54-7.33-17.37-11.66-27.53z"/>
</svg>