<svg version="1.2" xmlns="http://www.w3.org/2000/svg" viewBox="0 0 128 128" width="256" height="256">
	<defs>
		<linearGradient id="g1" x2="1" gradientUnits="userSpaceOnUse" gradientTransform="matrix(111.848,88.787,-89.079,112.216,19.02,15.699)">
			<stop offset="0" stop-color="#9013fe"/>
			<stop offset="1" stop-color="#6610f2"/>
		</linearGradient>
		<filter x="-50%" y="-50%" width="200%" height="200%" id="f1" ><feDropShadow dx="-6.123233995736766e-17" dy="1" stdDeviation="2.0833333333333335" flood-color="#000000" flood-opacity=".1"/></filter>
		<linearGradient id="g2" x2="1" gradientUnits="userSpaceOnUse" gradientTransform="matrix(25,42.282,-38.179,22.574,48.768,40.805)">
			<stop offset="0" stop-color="#ffffff"/>
			<stop offset="1" stop-color="#f1e5fc"/>
		</linearGradient>
	</defs>
	<style>
		.s0 { fill: url(#g1) } 
		.s1 { filter: url(#f1);fill: url(#g2) } 
	</style>
	<path class="s0" d="m14.12 26.33c-0.24-6.94 5.16-13.33 12.47-13.33h74.83c7.31 0 12.71 6.39 12.47 13.33-0.23 6.66 0.07 15.29 2.24 22.33 2.18 7.06 5.85 11.52 11.87 12.09v6.5c-6.02 0.57-9.69 5.03-11.87 12.09-2.17 7.04-2.47 15.67-2.24 22.33 0.24 6.94-5.16 13.33-12.47 13.33h-74.83c-7.31 0-12.71-6.4-12.47-13.33 0.23-6.66-0.07-15.29-2.24-22.33-2.18-7.05-5.86-11.52-11.88-12.09v-6.5c6.02-0.57 9.7-5.03 11.88-12.09 2.17-7.04 2.47-15.67 2.24-22.33z"/>
	<path class="s1" d="m67.17 91.48c11.82 0 18.94-5.78 18.94-15.33 0-7.22-5.08-12.45-12.63-13.28v-0.3c5.55-0.9 9.9-6.05 9.9-11.8 0-8.2-6.47-13.53-16.33-13.53h-22.18v54.24zm-13.68-47.36h11.48c6.24 0 9.78 2.78 9.78 7.81 0 5.38-4.12 8.39-11.59 8.39h-9.67zm0 40.49v-17.86h11.4c8.17 0 12.4 3.01 12.4 8.87 0 5.87-4.12 8.99-11.9 8.99z"/>
</svg>