<svg version="1.2" xmlns="http://www.w3.org/2000/svg" viewBox="0 0 204 204" width="256" height="256">
	<style>
		.s0 { fill: #7e13f8 } 
	</style>
	<path class="s0" d="m42.37 21c-11.64 0-20.25 10.19-19.87 21.24 0.37 10.61-0.11 24.36-3.57 35.57-3.47 11.24-9.34 18.37-18.93 19.28v10.33c9.59 0.91 15.46 8.03 18.93 19.28 3.46 11.21 3.94 24.96 3.57 35.57-0.38 11.05 8.23 21.24 19.87 21.24h119.27c11.64 0 20.26-10.19 19.87-21.24-0.37-10.61 0.11-24.36 3.57-35.57 3.47-11.25 9.33-18.37 18.92-19.28v-10.33c-9.59-0.91-15.45-8.04-18.92-19.28-3.46-11.21-3.94-24.96-3.57-35.57 0.39-11.05-8.23-21.24-19.87-21.24h-119.27zm95.93 100.03c0 15.22-11.34 24.44-30.18 24.44h-32.05q-0.69 0-1.33-0.26-0.63-0.26-1.12-0.75-0.48-0.49-0.75-1.12-0.26-0.64-0.26-1.32v-79.53q0-0.69 0.26-1.32 0.27-0.64 0.75-1.12 0.49-0.49 1.12-0.75 0.64-0.27 1.33-0.27h31.87c15.7 0 26.01 8.51 26.01 21.57 0 9.17-6.93 17.37-15.77 18.81v0.48c12.03 1.32 20.12 9.64 20.12 21.14zm-33.67-51.04h-18.28v25.82h15.4c11.9 0 18.46-4.79 18.46-13.36 0-8.02-5.64-12.46-15.58-12.46zm-18.28 36.07v28.45h18.95c12.39 0 18.96-4.97 18.96-14.32 0-9.34-6.75-14.13-19.76-14.13h-18.15z"/>
</svg>