<svg version="1.2" xmlns="http://www.w3.org/2000/svg" viewBox="0 0 256 256" width="256" height="256">
	<style>
		.s0 { fill: #649ad2 } 
		.s1 { fill: #004482 } 
		.s2 { fill: #1a4674 } 
		.s3 { fill: #01589c } 
		.s4 { fill: #ffffff } 
	</style>
	<path class="s0" d="m241.76 75.26q0.01-6.46-2.78-11.37-2.74-4.82-8.24-8.03c-30.32-17.48-60.68-34.91-90.99-52.41-8.17-4.72-16.1-4.55-24.21 0.24-12.07 7.11-72.5 41.73-90.5 52.16-7.42 4.3-11.03 10.87-11.03 19.4q0 52.75-0.01 105.49 0 6.33 2.66 11.16 2.74 4.97 8.37 8.25c18.01 10.43 78.44 45.04 90.51 52.16 8.11 4.79 16.04 4.96 24.21 0.24 30.32-17.5 60.67-34.93 91-52.41q5.63-3.28 8.36-8.25 2.67-4.83 2.67-11.16c0 0 0-70.3-0.02-105.47z"/>
	<path class="s1" d="m128.24 127.66l-111.58 64.24q2.74 4.97 8.37 8.25c18.01 10.43 78.44 45.04 90.51 52.16 8.11 4.79 16.04 4.96 24.21 0.24 30.32-17.5 60.67-34.93 91-52.41q5.63-3.28 8.36-8.25z"/>
	<path class="s2" d="m95.19 146.69c6.49 11.33 18.7 18.97 32.7 18.97 14.08 0 26.36-7.74 32.82-19.19l-32.47-18.81z"/>
	<path class="s3" d="m241.76 75.26q0.01-6.46-2.78-11.37l-110.74 63.77 110.87 64.23q2.67-4.83 2.67-11.16c0 0 0-70.3-0.02-105.47z"/>
	<path class="s4" d="m235.67 132.25h-8.67v8.66h-8.66v-8.66h-8.67v-8.66h8.67v-8.67h8.66v8.67h8.67c0 0 0 8.66 0 8.66zm-107.78-79.89c27.7 0 51.92 14.89 65.1 37.11l0.4 0.67-32.93 18.96c-6.52-11.22-18.66-18.77-32.57-18.77-20.8 0-37.67 16.87-37.67 37.67q0 2.45 0.32 4.87 0.31 2.43 0.94 4.8 0.63 2.36 1.56 4.63 0.93 2.26 2.15 4.39c6.49 11.33 18.7 18.97 32.7 18.97 13.93 0 26.09-7.57 32.6-18.82l0.22-0.37 32.87 19.04c-13.03 22.78-37.57 38.13-65.69 38.13-28.07 0-52.57-15.29-65.62-38-6.38-11.08-10.02-23.94-10.02-37.64 0-41.77 33.86-75.64 75.64-75.64zm67.5 62.56v8.66h8.66v8.67h-8.66v8.66h-8.67v-8.66h-8.66v-8.66h8.66v-8.67c0 0 8.67 0 8.67 0z"/>
</svg>