<svg version="1.2" xmlns="http://www.w3.org/2000/svg" viewBox="0 0 256 256" width="256" height="256">
	<style>
		.s0 { fill: #008fe2 } 
	</style>
	<path class="s0" d="m253.44 105.49c-0.64-0.53-7.15-5.44-20.8-5.44-3.63 0-7.25 0.32-10.77 0.96q-0.71-4.2-2.29-8.16-1.58-3.97-3.95-7.51-2.37-3.54-5.43-6.51-3.06-2.97-6.68-5.23l-3.63-2.13-2.45 3.52q-1.12 1.75-2.08 3.59-0.96 1.84-1.77 3.76-0.8 1.92-1.44 3.9-0.64 1.97-1.11 4c-2.56 10.35-1.07 20.05 4.27 28.37q-2.2 1.01-4.49 1.79-2.28 0.79-4.63 1.36-2.35 0.56-4.74 0.89-2.4 0.34-4.81 0.44h-168.53q-1.61-0.02-3.1 0.58-1.48 0.6-2.63 1.73-1.14 1.13-1.76 2.61-0.62 1.48-0.62 3.08-0.06 5.53 0.38 11.04 0.44 5.51 1.38 10.96 0.94 5.44 2.37 10.78 1.43 5.34 3.34 10.53 1.7 5.08 4.22 9.81 2.52 4.73 5.78 8.98 3.27 4.24 7.2 7.89 3.92 3.65 8.4 6.6c12.58 7.79 33.06 12.16 56.32 12.16 10.45 0 20.9-0.85 31.25-2.77q5.36-1 10.62-2.45 5.26-1.44 10.38-3.32 5.12-1.87 10.06-4.17 4.95-2.3 9.69-5 3.91-2.25 7.62-4.82 3.72-2.56 7.21-5.41 3.5-2.86 6.76-5.98 3.25-3.13 6.25-6.51c13.33-15.14 21.33-32 27.2-46.93h2.45c14.61 0 23.57-5.87 28.59-10.67 3.2-3.2 5.86-7.04 7.46-11.3l1.07-2.99zm-135.79-45.23h22.62q0.39-0.02 0.74-0.18 0.35-0.16 0.62-0.45 0.27-0.28 0.41-0.64 0.15-0.36 0.15-0.75v-20.16q-0.02-0.38-0.18-0.72-0.15-0.35-0.41-0.61-0.27-0.27-0.61-0.42-0.35-0.15-0.72-0.17h-22.62q-0.39-0.02-0.76 0.11-0.38 0.14-0.66 0.41-0.29 0.27-0.45 0.64-0.15 0.36-0.15 0.76v20.26c0 1.07 0.96 1.92 2.02 1.92zm0 28.91h22.62q0.37-0.02 0.72-0.17 0.34-0.16 0.61-0.42 0.26-0.27 0.41-0.61 0.16-0.34 0.18-0.72v-20.16q-0.02-0.38-0.18-0.72-0.15-0.34-0.41-0.61-0.27-0.26-0.61-0.42-0.35-0.15-0.72-0.17h-22.62q-0.39-0.02-0.76 0.11-0.38 0.14-0.66 0.41-0.29 0.28-0.45 0.64-0.15 0.36-0.15 0.76v20.16c0 1.07 0.96 1.92 2.02 1.92zm-31.25 0h22.61q0.38-0.02 0.72-0.17 0.35-0.16 0.61-0.42 0.27-0.27 0.42-0.61 0.15-0.34 0.17-0.72v-20.16q0-0.38-0.14-0.73-0.15-0.36-0.42-0.63-0.27-0.27-0.62-0.41-0.35-0.15-0.74-0.15h-22.61q-0.38 0-0.73 0.15-0.36 0.14-0.63 0.41-0.27 0.27-0.41 0.63-0.15 0.35-0.15 0.73v20.16c0 1.07 0.85 1.92 1.92 1.92zm-31.57 0h22.5q0.39 0 0.76-0.14 0.36-0.15 0.64-0.42 0.28-0.26 0.45-0.62 0.16-0.35 0.18-0.74v-20.16q0-0.4-0.16-0.76-0.15-0.36-0.44-0.64-0.29-0.27-0.66-0.41-0.37-0.13-0.77-0.11h-22.5q-0.39 0-0.76 0.14-0.36 0.15-0.64 0.42-0.28 0.26-0.45 0.62-0.16 0.35-0.18 0.74v20.16c0 1.07 0.85 1.92 2.03 1.92zm62.82 29.01h22.62q0.39-0.02 0.74-0.18 0.35-0.16 0.62-0.45 0.27-0.28 0.41-0.64 0.15-0.36 0.15-0.75v-20.06q0-0.39-0.15-0.75-0.14-0.36-0.41-0.64-0.27-0.29-0.62-0.45-0.35-0.16-0.74-0.18h-22.62q-0.39-0.02-0.76 0.11-0.38 0.14-0.66 0.41-0.29 0.27-0.45 0.64-0.15 0.36-0.15 0.76v20.26c0 1.07 0.96 1.92 2.02 1.92zm-31.25 0h22.61q0.4 0 0.76-0.15 0.37-0.16 0.64-0.45 0.27-0.28 0.41-0.66 0.13-0.37 0.11-0.76v-20.06q0.02-0.39-0.11-0.76-0.14-0.38-0.41-0.66-0.27-0.29-0.64-0.45-0.36-0.15-0.76-0.15h-22.61q-0.38 0-0.73 0.14-0.36 0.15-0.63 0.42-0.27 0.27-0.41 0.62-0.15 0.35-0.15 0.74v20.26c0 1.07 0.85 1.92 1.92 1.92zm-31.57 0h22.5q0.41 0.03 0.8-0.12 0.38-0.15 0.67-0.44 0.29-0.29 0.44-0.67 0.14-0.38 0.12-0.79v-20.06q0.02-0.39-0.11-0.76-0.14-0.38-0.41-0.66-0.28-0.29-0.64-0.45-0.36-0.15-0.76-0.15h-22.61q-0.41 0-0.78 0.15-0.37 0.16-0.66 0.44-0.28 0.29-0.44 0.66-0.15 0.37-0.15 0.77v20.06c0 1.06 0.85 2.02 2.03 2.02zm-31.15 0h22.61q0.4 0 0.76-0.15 0.37-0.16 0.64-0.45 0.27-0.28 0.41-0.66 0.13-0.37 0.11-0.76v-20.06q0.02-0.39-0.11-0.76-0.14-0.38-0.41-0.66-0.27-0.29-0.64-0.45-0.36-0.15-0.76-0.15h-22.61q-0.4-0.02-0.77 0.11-0.37 0.14-0.66 0.41-0.28 0.27-0.44 0.64-0.16 0.36-0.16 0.76v20.26c0 1.07 0.86 1.92 2.03 1.92zm125.44 0h22.61q0.41 0 0.78-0.15 0.37-0.16 0.66-0.44 0.28-0.29 0.44-0.66 0.15-0.37 0.15-0.77v-20.06q0-0.4-0.15-0.77-0.16-0.37-0.44-0.66-0.29-0.28-0.66-0.44-0.37-0.15-0.78-0.15h-22.61q-0.38 0-0.73 0.14-0.36 0.15-0.63 0.42-0.27 0.27-0.41 0.62-0.15 0.35-0.15 0.74v20.26c0 1.07 0.85 1.92 1.92 1.92z"/>
</svg>