<svg version="1.2" xmlns="http://www.w3.org/2000/svg" viewBox="0 0 64 64" width="250" height="250">
	<style>
		.s0 { fill: #f6f6f6 } 
	</style>
	<path class="s0" d="m64 49.59c-2.33 0.59-3.77 0.03-5.06-1.91l-9.19-12.72-1.33-1.76-10.73 14.52c-1.22 1.74-2.51 2.5-4.8 1.89l13.74-18.45-12.79-16.66c2.2-0.43 3.72-0.21 5.07 1.76l9.53 12.87 9.6-12.8c1.23-1.74 2.55-2.41 4.76-1.76l-4.96 6.57-6.72 8.75c-0.8 1-0.69 1.69 0.05 2.65zm-63.99-18.73l1.13-5.53c3.06-10.94 15.6-15.49 24.25-8.73 5.05 3.98 6.31 9.6 6.06 15.9h-28.49c-0.43 11.34 7.73 18.19 18.14 14.69 3.65-1.22 5.8-4.08 6.87-7.66 0.55-1.79 1.45-2.07 3.14-1.56-0.86 4.48-2.8 8.21-6.9 10.55-6.13 3.5-14.87 2.37-19.47-2.5-2.74-2.82-3.87-6.39-4.38-10.22-0.08-0.63-0.24-1.23-0.36-1.84q0.01-1.55 0.01-3.1zm3-0.76h25.74c-0.16-8.2-5.27-14.03-12.25-14.08-7.66-0.06-13.16 5.63-13.49 14.08z"/>
</svg>