<svg version="1.2" xmlns="http://www.w3.org/2000/svg" viewBox="0 0 250 250" width="250" height="250">
	<defs>
		<clipPath clipPathUnits="userSpaceOnUse" id="cp1">
			<path d="m250 3v244.9h-250v-244.9z"/>
		</clipPath>
	</defs>
	<style>
		.s0 { fill: #ffffff } 
	</style>
	<g id="Clip-Path" clip-path="url(#cp1)">
		<g>
			<path class="s0" d="m105.71 180c-32.22-3.9-54.93-27.1-54.93-57.13 0-12.2 4.4-25.39 11.72-34.18-3.17-8.05-2.69-25.14 0.98-32.22 9.76-1.22 22.95 3.9 30.76 10.98 9.28-2.93 19.04-4.39 31-4.39 11.97 0 21.73 1.46 30.52 4.15 7.57-6.84 21-11.96 30.76-10.74 3.42 6.59 3.91 23.68 0.74 31.98 7.81 9.28 11.96 21.73 11.96 34.42 0 30.03-22.71 52.74-55.42 56.89 8.3 5.37 13.91 17.09 13.91 30.52v25.39c0 7.32 6.11 11.47 13.43 8.54 44.19-16.84 78.86-61.03 78.86-115.72 0-69.09-56.15-125.49-125.24-125.49-69.1 0-124.76 56.4-124.76 125.49 0 54.2 34.42 99.12 80.81 115.97 6.59 2.44 12.94-1.96 12.94-8.55v-19.53c-3.42 1.46-7.81 2.44-11.72 2.44-16.11 0-25.63-8.79-32.47-25.15-2.68-6.59-5.61-10.49-11.23-11.23-2.93-0.24-3.91-1.46-3.91-2.93 0-2.93 4.89-5.12 9.77-5.12 7.08 0 13.18 4.39 19.53 13.42 4.88 7.08 10.01 10.26 16.11 10.26 6.11 0 10.01-2.2 15.63-7.81 4.15-4.15 7.32-7.82 10.25-10.26z"/>
		</g>
	</g>
</svg>