<svg version="1.2" xmlns="http://www.w3.org/2000/svg" viewBox="0 0 256 256" width="256" height="256">
	<style>
		.s0 { fill: #99425b } 
		.s1 { fill: #ffffff } 
	</style>
	<path class="s0" d="m229.95 126.18c0.02-3.34-0.67-6.65-2.02-9.7-1.35-3.06-3.34-5.8-5.83-8.03-2.49-2.23-5.42-3.91-8.61-4.92-3.18-1.01-6.55-1.33-9.87-0.95l32.68-97.13h-139.8l32.68 97.13c-3.25-0.25-6.51 0.18-9.59 1.25-3.07 1.07-5.9 2.77-8.28 4.99-2.39 2.22-4.29 4.9-5.59 7.89-1.3 2.99-1.96 6.22-1.95 9.47 0 10.9 7.26 19.98 17.24 22.7q-4.47 7.58-10.15 14.31-5.67 6.72-12.4 12.4-6.72 5.68-14.3 10.16-7.58 4.47-15.8 7.61c-14.52-7.26-20.88-24.51-15.43-39.03l2.72-4.54c10.82-2.6 18.35-12.39 18.09-23.51-0.26-11.12-8.25-20.55-19.18-22.63-10.92-2.08-21.82 3.75-26.15 13.99-4.34 10.25-0.93 22.13 8.18 28.52-6.36 12.71-14.53 27.23-17.25 43.57-3.63 19.06 0 39.94 16.34 51.75 39.94 27.23 82.61-16.35 127.09-28.15 16.34-3.63 34.5-2.72 49.02-11.8 10.9-5.44 18.16-16.34 19.98-28.14 1.81-10.89-0.91-22.69-8.18-31.77 3.64-4.54 6.36-9.99 6.36-15.44z"/>
	<path class="s1" d="m235.4 126.18c0-14.52-10.9-26.32-24.51-29.05l33.58-97.13h-156.14l33.59 97.13c-5.8 1.24-11.1 4.18-15.23 8.43-4.13 4.25-6.91 9.64-7.98 15.47-1.07 5.83-0.38 11.85 1.97 17.29 2.36 5.45 6.27 10.07 11.26 13.28q-3.96 5.82-8.69 11.03-4.73 5.2-10.14 9.7-5.42 4.49-11.4 8.18-5.99 3.68-12.44 6.5c-10.9-7.27-15.43-19.07-10.9-29.96l0.91-0.91 0.91-1.81c12.66-4.29 20.95-16.45 20.31-29.81-0.64-13.35-10.04-24.67-23.06-27.73-13.01-3.06-26.48 2.87-33.01 14.54-6.52 11.67-4.53 26.25 4.9 35.73l-3.64 7.27c-4.53 9.98-9.98 21.78-12.71 34.49-3.63 25.42 2.73 46.3 19.98 57.19 9.98 7.27 19.97 9.99 30.86 9.99 19.07 0 39.04-9.99 58.1-19.06 13.62-7.27 28.14-14.53 42.67-17.25l16.34-3.63c11.8-0.91 23.6-2.73 33.59-9.08 5.5-3.09 10.31-7.26 14.15-12.28 3.83-5.01 6.59-10.76 8.12-16.88 1.53-6.12 1.79-12.49 0.77-18.71-1.02-6.23-3.3-12.18-6.7-17.49 2.72-4.54 4.54-9.99 4.54-15.44zm-185.2-18.15c4.82 0 9.44 1.91 12.84 5.32 3.41 3.4 5.32 8.02 5.32 12.83 0 4.82-1.91 9.44-5.32 12.84-3.4 3.41-8.02 5.32-12.84 5.32-4.81 0-9.43-1.91-12.83-5.32-3.41-3.4-5.32-8.02-5.32-12.84 0-4.81 1.91-9.43 5.32-12.83 3.4-3.41 8.02-5.32 12.83-5.32zm59.92 18.15c0-4.81 1.91-9.43 5.32-12.83 3.4-3.41 8.02-5.32 12.84-5.32 4.81 0 9.43 1.91 12.83 5.32 3.41 3.4 5.32 8.02 5.32 12.83 0 4.82-1.91 9.44-5.32 12.84-3.4 3.41-8.02 5.32-12.83 5.32-4.82 0-9.44-1.91-12.84-5.32-3.41-3.4-5.32-8.02-5.32-12.84zm75.35-21.78c-4.54 3.63-7.27 9.08-8.17 13.61h-20.88c-0.91-5.44-4.54-9.98-9.08-13.61l19.06-38.13zm-80.79-92.6h123.46l-29.05 85.34-3.63 0.9-29.05-58.09-29.05 58.09-3.63-0.9zm118.92 114.38c0 2.38-0.47 4.75-1.38 6.95-0.91 2.2-2.25 4.2-3.94 5.89-1.68 1.68-3.68 3.02-5.89 3.93-2.2 0.92-4.56 1.39-6.95 1.39-7.34 0-13.96-4.43-16.77-11.21-2.81-6.79-1.26-14.6 3.94-19.79 5.19-5.19 13-6.74 19.78-3.93 6.79 2.81 11.21 9.43 11.21 16.77zm2.72 46.3c-1.81 9.98-8.17 19.06-17.24 24.51-9.08 4.54-19.07 6.35-29.96 8.17l-17.25 2.72c-15.43 3.63-30.87 10.9-45.39 18.16-29.05 14.52-53.56 27.23-77.16 10.89-17.25-11.8-16.34-34.49-14.53-46.3 1.82-10.89 7.26-21.78 11.8-31.77l2.73-4.54 7.26 1.82c-4.54 16.34 2.72 33.59 19.06 42.66l2.73 0.91 1.81-0.91q20.43-6.8 35.41-21.78c7.26-6.36 12.71-13.62 18.15-21.79 3.87 0.51 7.81 0.26 11.58-0.73 3.78-1 7.32-2.72 10.44-5.08 3.11-2.36 5.74-5.3 7.72-8.66 1.99-3.36 3.29-7.08 3.85-10.95h19.06c0.69 5.03 2.64 9.81 5.68 13.88 3.04 4.06 7.06 7.29 11.69 9.38 4.63 2.09 9.71 2.97 14.78 2.55 5.06-0.42 9.93-2.11 14.15-4.93 3.63 6.36 4.54 14.53 3.63 21.79z"/>
</svg>