<svg version="1.2" xmlns="http://www.w3.org/2000/svg" viewBox="0 0 258 258" width="258" height="258">
	<style>
		.s0 { fill: #4db33d } 
	</style>
	<path class="s0" d="m152 28.76c-10.88-12.85-20.25-25.9-22.16-28.61q-0.07-0.07-0.16-0.11-0.09-0.04-0.19-0.04-0.1 0-0.19 0.04-0.09 0.04-0.16 0.11c-1.92 2.71-11.28 15.76-22.16 28.61-93.35 118.53 14.7 198.53 14.7 198.53l0.91 0.6c0.81 12.35 2.82 30.11 2.82 30.11h8.06c0 0 2.01-17.66 2.82-30.11l0.9-0.7c0.1 0 108.16-79.9 14.81-198.43zm-22.56 196.72c0 0-4.84-4.11-6.15-6.22v-0.2l5.84-129.08c0-0.4 0.61-0.4 0.61 0l5.84 129.08v0.2c-1.31 2.11-6.14 6.22-6.14 6.22z"/>
</svg>