<svg version="1.2" xmlns="http://www.w3.org/2000/svg" viewBox="0 0 256 252" width="256" height="252">
	<style>
		.s0 { fill: #00758f } 
	</style>
	<path class="s0" d="m236.02 193.72c-13.99 0-24.99 1-33.98 4.99-3 1-6.99 1-6.99 4l2.99 6c2 2.99 5 7.99 9 10.99l10.99 7.99 20.98 9.99 10.99 9 6 3.99-3-5.99-4.99-5q-7.5-10.49-17.99-17.98c-6-3-17.99-9-19.99-14.99h-0.99l11.99-3 17.98-3 8-2v-1.99l-9-10c-7.99-7.99-17.98-14.99-27.98-21.98l-17.98-7.99c-2-1-6-2-7-4l-6.99-12.99-14.99-29.98-7.99-19.98c-17.99-29.98-37.97-47.97-67.95-64.95-6-4-13.99-5-21.99-7l-12.99-1-7.99-5.99c-9.99-6-35.97-19.99-42.97-2-4.99 10.99 7 21.98 10.99 27.98l9 12.99 3 8.99c2.99 7.99 4.99 16.99 8.99 23.98l5.99 9.99c2 2 4 3 5 6-3 4-3 8.99-4 12.99-6.99 19.98-3.99 43.97 5 58.95 2 4 8.99 13.99 17.99 10 7.99-3 5.99-12.99 7.99-21.99l1-3.99 7.99 13.99c5 8.99 13.99 17.98 21.99 23.98 3.99 3 7.99 7.99 12.99 9.99l-4-4-8.99-9.99c-8-9.99-13.99-20.98-19.99-31.97l-6.99-16.99-3-6c-3 4-7 7-8.99 11.99-3 7-3 16.99-4 25.98h-1c-6-1-7.99-6.99-9.99-11.99-5-11.99-6-31.97-1-45.96 1-4 5.99-14.99 4-18.99-1-3-4-4.99-6-6.99l-7-11.99-9.99-29.98-8.99-12.99c-3-5-7-7.99-9.99-13.99-1-2-2-5 0-6.99l2-2c1.99-2 8.99 0 10.99 1 5.99 2.99 11.99 4.99 16.98 8.99l8 5.99h4c5.99 1 11.99 0 16.98 2 9 3 17.99 7 24.98 11.99 22.99 13.99 41.97 34.98 53.96 58.96 3 4 3 7.99 5 11.99l11.99 25.98c4 7.99 6.99 15.99 11.99 22.98 3 4 13.99 6 17.99 8l11.99 3.99 17.98 12c2 1.99 11 6.99 12 9.99z"/>
	<path class="s0" d="m58.15 42.83l-6.99 1 5.99 7 4 8.99v-1c3-1 3.99-4 3.99-7.99l-1.99-4z"/>
</svg>