<svg version="1.2" xmlns="http://www.w3.org/2000/svg" viewBox="0 0 71 71" width="250" height="250">
	<style>
		.s0 { fill: #5fa04e } 
	</style>
	<g>
		<path class="s0" d="m34.56 71c-0.98 0-1.9-0.26-2.74-0.72l-8.7-5.15c-1.3-0.72-0.65-0.98-0.26-1.11 1.77-0.59 2.09-0.72 3.92-1.76 0.2-0.13 0.46-0.07 0.66 0.06l6.66 3.98c0.26 0.13 0.59 0.13 0.79 0l26.07-15.06c0.26-0.13 0.39-0.39 0.39-0.72v-30.07c0-0.33-0.13-0.59-0.39-0.72l-26.07-15c-0.26-0.13-0.59-0.13-0.79 0l-26.07 15c-0.26 0.13-0.39 0.46-0.39 0.72v30.07c0 0.26 0.13 0.59 0.39 0.72l7.12 4.11c3.86 1.95 6.27-0.33 6.27-2.61v-29.68c0-0.39 0.33-0.79 0.79-0.79h3.33c0.39 0 0.79 0.33 0.79 0.79v29.68c0 5.15-2.81 8.15-7.72 8.15-1.5 0-2.67 0-6.01-1.63l-6.86-3.91q-0.62-0.37-1.13-0.88-0.51-0.51-0.88-1.14-0.36-0.63-0.54-1.32-0.19-0.7-0.19-1.43v-30.07q0-0.72 0.19-1.42 0.18-0.7 0.54-1.32 0.37-0.63 0.88-1.14 0.51-0.51 1.13-0.88l26.07-15.07c1.64-0.91 3.86-0.91 5.49 0l26.07 15.07q0.63 0.37 1.14 0.88 0.51 0.51 0.87 1.14 0.36 0.62 0.55 1.32 0.19 0.7 0.19 1.42v30.07q0 0.73-0.19 1.43-0.19 0.69-0.55 1.32-0.36 0.63-0.87 1.14-0.51 0.51-1.14 0.88l-26.07 15.06c-0.78 0.33-1.76 0.59-2.74 0.59z"/>
		<path class="s0" d="m42.66 50.32c-11.43 0-13.79-5.22-13.79-9.65 0-0.39 0.33-0.78 0.79-0.78h3.4c0.39 0 0.72 0.26 0.72 0.65 0.52 3.46 2.02 5.15 8.95 5.15 5.49 0 7.84-1.24 7.84-4.17 0-1.7-0.66-2.94-9.22-3.79-7.12-0.71-11.56-2.28-11.56-7.95 0-5.29 4.44-8.42 11.89-8.42 8.37 0 12.48 2.87 13 9.13q0 0.3-0.19 0.59c-0.13 0.13-0.33 0.26-0.52 0.26h-3.47q-0.12 0-0.24-0.05-0.12-0.04-0.22-0.12-0.09-0.08-0.16-0.19-0.07-0.1-0.1-0.23c-0.78-3.58-2.81-4.76-8.16-4.76-6.02 0-6.73 2.09-6.73 3.66 0 1.89 0.85 2.47 8.95 3.52 8.03 1.04 11.82 2.54 11.82 8.15 0 5.74-4.77 9-13 9z"/>
	</g>
</svg>