<svg version="1.2" xmlns="http://www.w3.org/2000/svg" viewBox="0 0 433 433" width="433" height="433">
	<style>
		.s0 { fill: #000000;stroke: #000000;stroke-width: 37.4 } 
		.s1 { fill: #336791 } 
		.s2 { fill: none;stroke: #ffffff;stroke-linecap: round;stroke-linejoin: round;stroke-width: 12.5 } 
		.s3 { fill: none;stroke: #ffffff;stroke-linecap: round;stroke-linejoin: bevel;stroke-width: 12.5 } 
		.s4 { fill: #ffffff;stroke: #ffffff;stroke-width: 4.2 } 
		.s5 { fill: #ffffff;stroke: #ffffff;stroke-width: 2.1 } 
	</style>
	<g>
		<path class="s0" d="m320.18 314.91c2.75-22.88 1.93-26.24 18.98-22.53l4.32 0.38c13.11 0.59 30.26-2.11 40.34-6.79 21.68-10.07 34.54-26.87 13.16-22.45-48.78 10.06-52.13-6.46-52.13-6.46 51.51-76.42 73.04-173.44 54.45-197.19-50.69-64.77-138.44-34.14-139.91-33.34l-0.47 0.08c-9.64-2-20.42-3.19-32.54-3.39-22.07-0.36-38.82 5.79-51.53 15.43 0 0-156.54-64.5-149.26 81.1 1.55 30.97 44.4 234.37 95.5 172.93 18.68-22.46 36.73-41.46 36.73-41.46 8.97 5.96 19.7 9 30.95 7.91l0.87-0.75c-0.27 2.79-0.15 5.52 0.35 8.75-13.16 14.71-9.3 17.29-35.62 22.71-26.62 5.49-10.98 15.26-0.77 17.81 12.38 3.1 41.03 7.49 60.39-19.61l-0.77 3.09c5.16 4.13 4.82 29.7 5.55 47.96 0.73 18.27 1.95 35.31 5.68 45.36 3.72 10.05 8.11 35.93 42.71 28.52 28.91-6.19 51.01-15.11 53.02-98.06z"/>
		<path class="s1" d="m396.98 263.52c-48.78 10.06-52.13-6.46-52.13-6.46 51.51-76.43 73.04-173.45 54.46-197.19-50.7-64.77-138.45-34.14-139.92-33.34l-0.47 0.08c-9.64-2-20.42-3.19-32.54-3.39-22.08-0.36-38.82 5.79-51.53 15.42 0 0-156.54-64.49-149.26 81.11 1.55 30.97 44.39 234.37 95.5 172.93 18.68-22.46 36.73-41.46 36.73-41.46 8.96 5.96 19.69 9 30.94 7.91l0.88-0.75c-0.28 2.79-0.15 5.52 0.35 8.75-13.17 14.71-9.3 17.29-35.62 22.71-26.63 5.49-10.99 15.26-0.77 17.81 12.38 3.1 41.03 7.49 60.39-19.61l-0.78 3.09c5.16 4.13 8.79 26.88 8.18 47.49-0.61 20.62-1.01 34.78 3.05 45.83 4.07 11.06 8.12 35.93 42.71 28.52 28.91-6.19 43.9-22.25 45.98-49.03 1.48-19.04 4.83-16.22 5.04-33.25l2.68-8.05c3.1-25.81 0.49-34.14 18.3-30.27l4.33 0.38c13.11 0.6 30.27-2.1 40.34-6.78 21.68-10.07 34.54-26.87 13.16-22.45z"/>
		<path class="s2" d="m216.08 278.31c-1.34 48.02 0.34 96.38 5.04 108.13 4.7 11.75 14.76 34.61 49.36 27.2 28.91-6.2 39.43-18.19 43.99-44.66 3.36-19.48 9.84-73.57 10.67-84.65m-150.53-246.76c0 0-156.65-64.03-149.37 81.57 1.55 30.98 44.4 234.38 95.51 172.94 18.67-22.47 35.56-40.09 35.56-40.09m102.91-226.11c-5.42 1.7 87.14-33.83 139.74 33.38 18.59 23.75-2.95 120.77-54.46 197.2"/>
		<path class="s3" d="m344.5 256.46c0 0 3.36 16.52 52.15 6.45 21.37-4.41 8.51 12.39-13.17 22.46-17.79 8.25-57.68 10.37-58.33-1.04-1.68-29.44 20.99-20.49 19.35-27.87-1.47-6.64-11.61-13.17-18.32-29.42-5.85-14.2-80.3-123.03 20.65-106.86 3.69-0.77-26.33-96.02-120.8-97.57-94.45-1.55-91.35 116.15-91.35 116.15"/>
		<path class="s2" d="m189.64 266.53c-13.17 14.71-9.29 17.29-35.61 22.71-26.63 5.49-10.99 15.26-0.78 17.81 12.39 3.1 41.03 7.48 60.39-19.62 5.9-8.25-0.03-21.42-8.13-24.78-3.91-1.62-9.14-3.65-15.87 3.88z"/>
		<path class="s2" d="m188.78 266.27c-1.33-8.65 2.84-18.94 7.31-30.98 6.71-18.06 22.2-36.13 9.81-93.43-9.24-42.7-71.18-8.89-71.22-3.1-0.04 5.79 2.8 29.35-1.04 56.78-5 35.8 22.78 66.08 54.78 62.98"/>
		<path class="s4" d="m174.04 137.89c-0.28 1.98 3.62 7.26 8.71 7.96 5.07 0.71 9.42-3.41 9.69-5.39 0.28-1.98-3.62-4.15-8.7-4.86-5.08-0.71-9.43 0.32-9.7 2.29z"/>
		<path class="s5" d="m328.66 133.86c0.27 1.98-3.62 7.26-8.71 7.96-5.08 0.71-9.42-3.42-9.7-5.39-0.27-1.98 3.62-4.16 8.71-4.86 5.08-0.71 9.42 0.32 9.7 2.29z"/>
		<path class="s2" d="m346.83 120.18c0.83 15.51-3.35 26.07-3.87 42.59-0.78 24 11.44 51.47-6.98 78.97"/>
	</g>
</svg>