<svg version="1.2" xmlns="http://www.w3.org/2000/svg" viewBox="0 0 32 32" width="250" height="250">
	<defs>
		<linearGradient id="g1" x2="1" gradientUnits="userSpaceOnUse" gradientTransform="matrix(15.823,15.876,-25.326,25.241,3.075,2.782)">
			<stop offset="0" stop-color="#387eb8"/>
			<stop offset="1" stop-color="#366994"/>
		</linearGradient>
		<linearGradient id="g2" x2="1" gradientUnits="userSpaceOnUse" gradientTransform="matrix(16.994,16.281,-25.941,27.077,12.809,12.882)">
			<stop offset="0" stop-color="#ffe052"/>
			<stop offset="1" stop-color="#ffc331"/>
		</linearGradient>
	</defs>
	<style>
		.s0 { fill: url(#g1) } 
		.s1 { fill: url(#g2) } 
	</style>
	<path class="s0" d="m15.89 0c-8.13 0-7.62 3.52-7.62 3.52l0.01 3.65h7.75v1.1h-10.83c0 0-5.2-0.59-5.2 7.61 0 8.19 4.54 7.9 4.54 7.9h2.7v-3.8c0 0-0.14-4.54 4.47-4.54h7.69c0 0 4.32 0.07 4.32-4.17v-7.02c0 0 0.65-4.25-7.83-4.25zm-4.28 2.45c0.37 0.01 0.72 0.15 0.99 0.41 0.26 0.26 0.4 0.62 0.4 0.99 0 0.37-0.14 0.72-0.4 0.98-0.27 0.27-0.62 0.41-0.99 0.41q-0.28 0-0.53-0.1-0.26-0.11-0.46-0.3-0.19-0.2-0.3-0.46-0.1-0.25-0.1-0.53c-0.01-0.77 0.62-1.4 1.39-1.4z"/>
	<path class="s1" d="m16.12 31.83c8.12 0 7.61-3.52 7.61-3.52l-0.01-3.65h-7.75v-1.1h10.83c0 0 5.2 0.6 5.2-7.6 0-8.2-4.54-7.91-4.54-7.91h-2.7v3.81c0 0 0.14 4.53-4.47 4.53h-7.69c0 0-4.32-0.07-4.32 4.18v7.02c0 0-0.65 4.24 7.84 4.24zm4.27-2.45q-0.28 0-0.53-0.11-0.26-0.1-0.46-0.3-0.19-0.2-0.3-0.45-0.1-0.26-0.11-0.54c0.01-0.56 0.35-1.07 0.87-1.28 0.52-0.22 1.12-0.1 1.51 0.3 0.4 0.4 0.52 1 0.31 1.52-0.22 0.52-0.73 0.86-1.29 0.86z"/>
</svg>