<svg version="1.2" xmlns="http://www.w3.org/2000/svg" viewBox="0 0 1024 1024" width="256" height="256">
	<style>
		.s0 { fill: #ffffff } 
	</style>
	<path class="s0" d="m4.8 438.2q-0.92 6.4-1.68 12.83-0.76 6.42-1.36 12.86-0.6 6.44-1.04 12.89-0.44 6.46-0.72 12.92h777.8c-2.7-5.3-6.4-10-10-14.7-133-171.8-204.5-157-306.9-161.3-34-1.4-57.2-2-193-2-72.7 0-151.7 0.2-228.6 0.4q-3.62 9.07-6.95 18.25-3.33 9.19-6.37 18.47-3.04 9.28-5.78 18.65-2.75 9.38-5.2 18.83h398.6v51.9zm779.1 103.5h-783.5c0.8 13.8 2.1 27.5 4 41h723.4c32.2 0 50.3-18.3 56.1-41zm-738.9 182.6c0 0 120 294.5 466.5 299.7 207 0 385-123 465.9-299.7z"/>
	<path class="s0" d="m511.5 0c-45.2 0-90.2 5.97-133.83 17.78-43.63 11.8-85.51 29.33-124.54 52.13-39.03 22.79-74.87 50.66-106.59 82.86-31.72 32.2-59.04 68.46-81.24 107.83l202.7-0.2c158.4 0 164.2 0.6 195.2 2l19.1 0.6c66.7 2.3 148.7 9.4 213.2 58.2 35 26.5 85.6 85 115.7 126.5 27.9 38.5 35.9 82.8 17 125.2-17.5 39-55 62.2-100.4 62.2h-711.1c0 0 4.2 18 10.6 37.8h970.6q6.46-19.4 11.34-39.26 4.88-19.86 8.16-40.04 3.28-20.19 4.93-40.57 1.65-20.38 1.67-40.83c-0.03-67.28-13.3-133.9-39.07-196.05-25.77-62.15-63.53-118.62-111.11-166.18-47.59-47.56-104.08-85.28-166.25-111.01-62.16-25.74-128.79-38.97-196.07-38.96z"/>
</svg>