<svg version="1.2" xmlns="http://www.w3.org/2000/svg" viewBox="0 0 512 512" width="512" height="512">
	<style>
		.s0 { fill: #61dbfb } 
	</style>
	<g>
		<g>
			<path id="react_light__Path" fill-rule="evenodd" class="s0" d="m256.9 304.94c-27.12 0-49.04-21.92-49.04-49.04 0-27.12 21.92-49.04 49.04-49.04 27.12 0 49.04 21.92 49.04 49.04 0 27.12-21.92 49.04-49.04 49.04z"/>
			<path id="react_light__Shape" class="s0" d="m511.96 256.35c0-38.5-35.65-72.27-92.42-94.49 0.76-5.01 1.45-9.96 1.94-14.82 5.6-55.32-7.73-95.25-37.52-112.45-33.32-19.24-80.39-5.27-127.98 32.81-47.59-38.08-94.66-52.05-127.98-32.81-29.78 17.2-43.11 57.13-37.51 112.45 0.48 4.86 1.15 9.83 1.93 14.85-4.73 1.81-9.37 3.73-13.84 5.73-50.68 22.78-78.58 54.33-78.58 88.73 0 38.5 35.65 72.26 92.42 94.49-0.78 5-1.45 9.95-1.93 14.81-5.6 55.32 7.73 95.25 37.51 112.45 10.24 5.81 21.84 8.78 33.61 8.6 28.21 0 61.16-14.85 94.37-41.41 33.2 26.56 66.16 41.41 94.41 41.41 11.77 0.17 23.37-2.8 33.61-8.6 29.78-17.2 43.11-57.13 37.51-112.45-0.48-4.86-1.17-9.81-1.93-14.81 56.77-22.19 92.42-56.01 92.42-94.49m-161.83-205.97c7.57-0.18 15.05 1.66 21.67 5.32 20.68 11.94 29.97 44.33 25.45 88.87q-0.45 4.55-1.1 9.19c-23.6-7.11-47.77-12.18-72.24-15.15-14.84-19.73-31.33-38.15-49.31-55.05 28.23-21.83 54.72-33.18 75.51-33.18m-9.7 254.75c-9.13 15.86-19.08 31.23-29.8 46.07-18.17 1.87-36.42 2.79-54.69 2.78-18.26 0.01-36.5-0.92-54.67-2.78-10.69-14.84-20.61-30.21-29.71-46.07-9.13-15.82-17.43-32.1-24.87-48.78 7.44-16.69 15.74-32.97 24.87-48.78 9.09-15.8 18.98-31.12 29.62-45.91 18.2-1.91 36.48-2.87 54.78-2.86 18.26-0.01 36.51 0.92 54.67 2.79 10.69 14.81 20.61 30.16 29.73 45.98 9.13 15.82 17.43 32.1 24.87 48.78-7.44 16.68-15.74 32.96-24.87 48.78m37.3-18.07c5.73 15.64 10.44 31.63 14.09 47.88-15.84 4.94-31.99 8.83-48.34 11.65q9.32-14.05 18.07-29.25c5.76-10.01 11.16-20.11 16.25-30.21m-156.07 90.14c11.24 0.69 22.71 1.08 34.32 1.08 11.61 0 23.15-0.39 34.41-1.08-10.67 12.78-22.17 24.85-34.41 36.13-12.22-11.28-23.68-23.35-34.32-36.13zm-53.13-30.71c-16.36-2.81-32.51-6.69-48.35-11.62 3.63-16.22 8.32-32.19 14.03-47.81 5.02 10.1 10.4 20.2 16.26 30.21 5.85 10.01 11.9 19.87 18.06 29.25m-34.32-121.05c-5.69-15.55-10.36-31.46-14-47.62 15.81-4.93 31.92-8.84 48.23-11.69-6.18 9.34-12.23 19.02-18.06 29.12-5.84 10.1-11.17 20.08-16.26 30.19m156.16-90.13c-11.24-0.69-22.7-1.09-34.41-1.09q-17.41 0-34.31 1.09c10.63-12.79 22.09-24.86 34.31-36.14 12.25 11.28 23.74 23.35 34.41 36.14zm71.16 59.94q-8.78-15.21-18.15-29.26c16.39 2.82 32.58 6.72 48.46 11.67-3.65 16.22-8.33 32.19-14.04 47.8-5.02-10.1-10.42-20.2-16.25-30.19m-246.74-50.78c-4.57-44.52 4.77-76.93 25.43-88.88 6.63-3.65 14.11-5.48 21.68-5.31 20.79 0 47.28 11.35 75.51 33.17-17.99 16.92-34.5 35.35-49.34 55.09-24.47 2.99-48.63 8.04-72.25 15.1q-0.63-4.63-1.08-9.17m-26.1 45.27q4.17-1.81 8.51-3.61c5.68 23.97 13.38 47.42 23.03 70.1-9.67 22.72-17.38 46.21-23.05 70.24-46.02-18.88-72.7-45.04-72.7-70.24 0-23.89 23.48-48.11 64.21-66.49zm51.58 267.12c-20.66-11.94-30-44.35-25.43-88.87 0.29-3.04 0.67-6.09 1.09-9.2 23.6 7.11 47.77 12.18 72.24 15.16 14.84 19.73 31.34 38.16 49.31 55.09-39.36 30.4-75.32 40.43-97.15 27.82m257.05-88.87c4.51 44.53-4.77 76.93-25.45 88.87-21.82 12.65-57.8 2.58-97.14-27.82 17.97-16.93 34.46-35.36 49.29-55.09 24.47-2.98 48.64-8.05 72.25-15.16q0.64 4.66 1.1 9.2m17.66-41.55c-5.69-24.02-13.4-47.5-23.06-70.21 9.65-22.72 17.36-46.22 23.05-70.25 45.92 18.88 72.67 45.04 72.67 70.25 0 25.2-26.67 51.36-72.69 70.24"/>
		</g>
	</g>
</svg>