<svg version="1.2" xmlns="http://www.w3.org/2000/svg" viewBox="0 0 256 256" width="256" height="256">
	<style>
		.s0 { fill: #ffffff } 
	</style>
	<path class="s0" d="m194.81 0.07c-33.3-1.56-61.27 22.5-66.05 54.21-0.19 1.47-0.48 2.9-0.72 4.32-7.42 39.5-41.98 69.41-83.49 69.41q-5.32 0.01-10.61-0.65-5.29-0.66-10.45-1.98-5.16-1.32-10.11-3.28-4.96-1.96-9.63-4.53-0.5-0.29-1.08-0.28-0.58 0-1.08 0.29-0.49 0.3-0.78 0.8-0.28 0.51-0.28 1.09v136.53h127.47v-95.99c0-17.66 14.27-32 31.86-32h31.87c36.08 0 65.1-30.05 63.68-66.6-1.28-32.9-27.84-59.77-60.6-61.34z"/>
</svg>