<svg version="1.2" xmlns="http://www.w3.org/2000/svg" viewBox="0 0 256 256" width="256" height="256">
	<style>
		.s0 { fill: #68bd45 } 
	</style>
	<path class="s0" d="m232.8 13.46q-1.34 3.22-2.87 6.36-1.54 3.13-3.25 6.17-1.71 3.04-3.6 5.98-1.9 2.93-3.96 5.75c-24.25-24.36-57.25-37.97-91.62-37.79-34.37 0.18-67.24 14.13-91.24 38.73-24 24.6-37.13 57.8-36.45 92.17 0.67 34.36 15.1 67.02 40.05 90.66l4.74 4.19c18.11 15.25 40.08 25.2 63.48 28.74 23.41 3.54 47.34 0.54 69.15-8.67 21.81-9.21 40.64-24.28 54.41-43.53 13.78-19.25 21.96-41.94 23.64-65.56 3.5-32.68-6.09-74.04-22.48-123.2zm-174.68 208.77c-2.79 3.45-7.39 4.88-11.65 3.62-4.26-1.26-7.34-4.96-7.8-9.38-0.46-4.42 1.78-8.68 5.69-10.79 3.9-2.12 8.7-1.67 12.14 1.12 1.12 0.91 2.05 2.03 2.74 3.3 0.68 1.26 1.11 2.65 1.26 4.08 0.15 1.44 0.02 2.88-0.39 4.26-0.41 1.39-1.08 2.67-1.99 3.79zm174.15-38.44c-31.68 42.2-99.32 27.96-142.69 30.01 0 0-7.68 0.45-15.42 1.72 0 0 2.92-1.24 6.65-2.65 30.45-10.6 44.85-12.64 63.35-22.16 34.83-17.71 69.29-56.49 76.45-96.8-13.25 38.78-53.49 72.13-90.12 85.67-25.11 9.25-70.46 18.26-70.46 18.26l-1.83-0.98c-30.85-15-31.8-81.82 24.31-103.38 24.57-9.46 48.08-4.26 74.62-10.6 28.33-6.73 61.12-27.96 74.46-55.66 14.92 44.32 32.89 113.69 0.68 156.57z"/>
</svg>