<svg version="1.2" xmlns="http://www.w3.org/2000/svg" viewBox="0 0 100 100" width="250" height="250">
	<defs>
		<clipPath clipPathUnits="userSpaceOnUse" id="cp1">
			<path d="m100 20v60h-100v-60z"/>
		</clipPath>
	</defs>
	<style>
		.s0 { fill: #38bdf8 } 
	</style>
	<g id="Clip-Path" clip-path="url(#cp1)">
		<g>
			<path fill-rule="evenodd" class="s0" d="m50 20q-20 0-25 20 7.5-10 17.5-7.5c3.8 0.95 6.52 3.71 9.53 6.76 4.9 4.98 10.58 10.74 22.97 10.74q20 0 25-20-7.5 10-17.5 7.5c-3.8-0.95-6.52-3.71-9.53-6.76-4.9-4.98-10.58-10.74-22.97-10.74zm-25 30q-20 0-25 20 7.5-10 17.5-7.5c3.8 0.95 6.52 3.71 9.53 6.76 4.9 4.98 10.58 10.74 22.97 10.74q20 0 25-20-7.5 10-17.5 7.5c-3.8-0.95-6.52-3.71-9.53-6.76-4.9-4.98-10.58-10.74-22.97-10.74z"/>
		</g>
	</g>
</svg>